<mxfile host="app.diagrams.net" modified="2023-10-09T03:35:37.156Z" agent="Mozilla/5.0 (Windows NT 10.0; Win64; x64) AppleWebKit/537.36 (KHTML, like Gecko) Chrome/117.0.0.0 Safari/537.36" etag="2umXfeNpGmrR2ZJdfqDC" version="21.8.2" type="github">
  <diagram id="C5RBs43oDa-KdzZeNtuy" name="Page-1">
    <mxGraphModel dx="1562" dy="830" grid="0" gridSize="10" guides="1" tooltips="1" connect="1" arrows="1" fold="1" page="1" pageScale="1" pageWidth="827" pageHeight="1169" math="0" shadow="0">
      <root>
        <mxCell id="WIyWlLk6GJQsqaUBKTNV-0" />
        <mxCell id="WIyWlLk6GJQsqaUBKTNV-1" parent="WIyWlLk6GJQsqaUBKTNV-0" />
        <mxCell id="WIyWlLk6GJQsqaUBKTNV-2" value="" style="rounded=0;html=1;jettySize=auto;orthogonalLoop=1;fontSize=13;endArrow=block;endFill=0;endSize=8;strokeWidth=1;shadow=0;labelBackgroundColor=none;edgeStyle=orthogonalEdgeStyle;entryX=0.5;entryY=0;entryDx=0;entryDy=0;" parent="WIyWlLk6GJQsqaUBKTNV-1" source="WIyWlLk6GJQsqaUBKTNV-3" target="swVpQnuNvBOdap2Y2u9S-1" edge="1">
          <mxGeometry relative="1" as="geometry">
            <mxPoint x="148" y="238" as="targetPoint" />
          </mxGeometry>
        </mxCell>
        <mxCell id="WIyWlLk6GJQsqaUBKTNV-3" value="进入标注文本界面" style="rounded=1;whiteSpace=wrap;html=1;fontSize=13;glass=0;strokeWidth=1;shadow=0;" parent="WIyWlLk6GJQsqaUBKTNV-1" vertex="1">
          <mxGeometry x="76" y="135" width="146" height="40" as="geometry" />
        </mxCell>
        <mxCell id="swVpQnuNvBOdap2Y2u9S-3" style="edgeStyle=orthogonalEdgeStyle;rounded=0;orthogonalLoop=1;jettySize=auto;html=1;exitX=0.5;exitY=1;exitDx=0;exitDy=0;entryX=0.5;entryY=0;entryDx=0;entryDy=0;fontSize=13;" edge="1" parent="WIyWlLk6GJQsqaUBKTNV-1" source="swVpQnuNvBOdap2Y2u9S-1" target="swVpQnuNvBOdap2Y2u9S-2">
          <mxGeometry relative="1" as="geometry" />
        </mxCell>
        <mxCell id="swVpQnuNvBOdap2Y2u9S-1" value="自动匹配库里的实体名，并高亮（模糊匹配）" style="rounded=0;whiteSpace=wrap;html=1;fontSize=13;" vertex="1" parent="WIyWlLk6GJQsqaUBKTNV-1">
          <mxGeometry x="77" y="219" width="143" height="58" as="geometry" />
        </mxCell>
        <mxCell id="swVpQnuNvBOdap2Y2u9S-6" style="edgeStyle=orthogonalEdgeStyle;rounded=0;orthogonalLoop=1;jettySize=auto;html=1;exitX=0.5;exitY=1;exitDx=0;exitDy=0;entryX=0.5;entryY=0;entryDx=0;entryDy=0;fontSize=13;" edge="1" parent="WIyWlLk6GJQsqaUBKTNV-1" source="swVpQnuNvBOdap2Y2u9S-2" target="swVpQnuNvBOdap2Y2u9S-5">
          <mxGeometry relative="1" as="geometry" />
        </mxCell>
        <mxCell id="swVpQnuNvBOdap2Y2u9S-2" value="匹配到的实体出现在左侧" style="rounded=0;whiteSpace=wrap;html=1;fontSize=13;" vertex="1" parent="WIyWlLk6GJQsqaUBKTNV-1">
          <mxGeometry x="73.5" y="307" width="149" height="60" as="geometry" />
        </mxCell>
        <mxCell id="swVpQnuNvBOdap2Y2u9S-8" style="edgeStyle=orthogonalEdgeStyle;rounded=0;orthogonalLoop=1;jettySize=auto;html=1;exitX=0.5;exitY=1;exitDx=0;exitDy=0;entryX=0.5;entryY=0;entryDx=0;entryDy=0;fontSize=13;" edge="1" parent="WIyWlLk6GJQsqaUBKTNV-1" source="swVpQnuNvBOdap2Y2u9S-5" target="swVpQnuNvBOdap2Y2u9S-7">
          <mxGeometry relative="1" as="geometry" />
        </mxCell>
        <mxCell id="swVpQnuNvBOdap2Y2u9S-9" style="edgeStyle=orthogonalEdgeStyle;rounded=0;orthogonalLoop=1;jettySize=auto;html=1;exitX=1;exitY=0.5;exitDx=0;exitDy=0;entryX=0;entryY=0.5;entryDx=0;entryDy=0;fontSize=13;" edge="1" parent="WIyWlLk6GJQsqaUBKTNV-1" source="swVpQnuNvBOdap2Y2u9S-5" target="swVpQnuNvBOdap2Y2u9S-11">
          <mxGeometry relative="1" as="geometry">
            <mxPoint x="333" y="443" as="targetPoint" />
          </mxGeometry>
        </mxCell>
        <mxCell id="swVpQnuNvBOdap2Y2u9S-5" value="点击实体属性，自动把库里该实体的所有属性值在文本中高亮（如果有），并自动填充" style="rounded=0;whiteSpace=wrap;html=1;fontSize=13;" vertex="1" parent="WIyWlLk6GJQsqaUBKTNV-1">
          <mxGeometry x="73.5" y="406" width="150" height="70" as="geometry" />
        </mxCell>
        <mxCell id="swVpQnuNvBOdap2Y2u9S-13" style="edgeStyle=orthogonalEdgeStyle;rounded=0;orthogonalLoop=1;jettySize=auto;html=1;exitX=1;exitY=0.5;exitDx=0;exitDy=0;entryX=0;entryY=0.5;entryDx=0;entryDy=0;fontSize=13;" edge="1" parent="WIyWlLk6GJQsqaUBKTNV-1" source="swVpQnuNvBOdap2Y2u9S-7" target="swVpQnuNvBOdap2Y2u9S-12">
          <mxGeometry relative="1" as="geometry" />
        </mxCell>
        <mxCell id="swVpQnuNvBOdap2Y2u9S-15" style="edgeStyle=orthogonalEdgeStyle;rounded=0;orthogonalLoop=1;jettySize=auto;html=1;exitX=0.5;exitY=1;exitDx=0;exitDy=0;fontSize=13;" edge="1" parent="WIyWlLk6GJQsqaUBKTNV-1" source="swVpQnuNvBOdap2Y2u9S-7" target="swVpQnuNvBOdap2Y2u9S-14">
          <mxGeometry relative="1" as="geometry" />
        </mxCell>
        <mxCell id="swVpQnuNvBOdap2Y2u9S-7" value="点击实体关系，查找以匹配到的实体与当前实体的关系，并自动填充" style="rounded=0;whiteSpace=wrap;html=1;fontSize=13;" vertex="1" parent="WIyWlLk6GJQsqaUBKTNV-1">
          <mxGeometry x="72" y="526" width="153" height="68" as="geometry" />
        </mxCell>
        <mxCell id="swVpQnuNvBOdap2Y2u9S-16" style="edgeStyle=orthogonalEdgeStyle;rounded=0;orthogonalLoop=1;jettySize=auto;html=1;exitX=1;exitY=0.5;exitDx=0;exitDy=0;entryX=0;entryY=0.5;entryDx=0;entryDy=0;fontSize=13;" edge="1" parent="WIyWlLk6GJQsqaUBKTNV-1" source="swVpQnuNvBOdap2Y2u9S-11" target="swVpQnuNvBOdap2Y2u9S-17">
          <mxGeometry relative="1" as="geometry">
            <mxPoint x="501.0001220703125" y="440.5" as="targetPoint" />
          </mxGeometry>
        </mxCell>
        <mxCell id="swVpQnuNvBOdap2Y2u9S-19" value="&lt;font style=&quot;font-size: 13px;&quot;&gt;否&lt;/font&gt;" style="edgeLabel;html=1;align=center;verticalAlign=middle;resizable=0;points=[];fontSize=13;" vertex="1" connectable="0" parent="swVpQnuNvBOdap2Y2u9S-16">
          <mxGeometry x="-0.4333" relative="1" as="geometry">
            <mxPoint as="offset" />
          </mxGeometry>
        </mxCell>
        <mxCell id="swVpQnuNvBOdap2Y2u9S-11" value="校验：&lt;br style=&quot;font-size: 13px;&quot;&gt;高亮的值与填充的值&lt;br style=&quot;font-size: 13px;&quot;&gt;是否一致" style="rhombus;whiteSpace=wrap;html=1;fontSize=13;" vertex="1" parent="WIyWlLk6GJQsqaUBKTNV-1">
          <mxGeometry x="312" y="385" width="149" height="111" as="geometry" />
        </mxCell>
        <mxCell id="swVpQnuNvBOdap2Y2u9S-18" style="edgeStyle=orthogonalEdgeStyle;rounded=0;orthogonalLoop=1;jettySize=auto;html=1;exitX=1;exitY=0.5;exitDx=0;exitDy=0;entryX=0;entryY=0.5;entryDx=0;entryDy=0;fontSize=13;" edge="1" parent="WIyWlLk6GJQsqaUBKTNV-1" source="swVpQnuNvBOdap2Y2u9S-12" target="swVpQnuNvBOdap2Y2u9S-21">
          <mxGeometry relative="1" as="geometry" />
        </mxCell>
        <mxCell id="swVpQnuNvBOdap2Y2u9S-20" value="&lt;font style=&quot;font-size: 13px;&quot;&gt;否&lt;/font&gt;" style="edgeLabel;html=1;align=center;verticalAlign=middle;resizable=0;points=[];fontSize=13;" vertex="1" connectable="0" parent="swVpQnuNvBOdap2Y2u9S-18">
          <mxGeometry x="-0.3984" y="-3" relative="1" as="geometry">
            <mxPoint as="offset" />
          </mxGeometry>
        </mxCell>
        <mxCell id="swVpQnuNvBOdap2Y2u9S-12" value="校验：&lt;br style=&quot;font-size: 13px;&quot;&gt;文本中是否存在该关系" style="rhombus;whiteSpace=wrap;html=1;fontSize=13;" vertex="1" parent="WIyWlLk6GJQsqaUBKTNV-1">
          <mxGeometry x="312" y="504.5" width="150" height="111" as="geometry" />
        </mxCell>
        <mxCell id="swVpQnuNvBOdap2Y2u9S-14" value="返回实体名列表，点击下一个实体" style="rounded=1;whiteSpace=wrap;html=1;fontSize=13;" vertex="1" parent="WIyWlLk6GJQsqaUBKTNV-1">
          <mxGeometry x="73.5" y="631" width="151" height="60" as="geometry" />
        </mxCell>
        <mxCell id="swVpQnuNvBOdap2Y2u9S-17" value="修改为文本中的值" style="rounded=0;whiteSpace=wrap;html=1;fontSize=13;" vertex="1" parent="WIyWlLk6GJQsqaUBKTNV-1">
          <mxGeometry x="559" y="410.5" width="120" height="60" as="geometry" />
        </mxCell>
        <mxCell id="swVpQnuNvBOdap2Y2u9S-21" value="删除关系" style="rounded=0;whiteSpace=wrap;html=1;" vertex="1" parent="WIyWlLk6GJQsqaUBKTNV-1">
          <mxGeometry x="559" y="530" width="120" height="60" as="geometry" />
        </mxCell>
      </root>
    </mxGraphModel>
  </diagram>
</mxfile>
